<mxfile host="app.diagrams.net" modified="2023-11-14T08:44:53.871Z" agent="Mozilla/5.0 (Windows NT 10.0; Win64; x64) AppleWebKit/537.36 (KHTML, like Gecko) Chrome/116.0.5845.837 YaBrowser/23.9.4.837 Yowser/2.5 Safari/537.36" etag="zxxbIVPi7vqq9yd3byVz" version="22.1.0" type="device">
  <diagram name="Страница — 1" id="BLXkgfGikB-ngnV1vHhk">
    <mxGraphModel dx="488" dy="272" grid="1" gridSize="10" guides="1" tooltips="1" connect="1" arrows="1" fold="1" page="1" pageScale="1" pageWidth="827" pageHeight="1169" math="0" shadow="0">
      <root>
        <mxCell id="0" />
        <mxCell id="1" parent="0" />
        <mxCell id="7JWM1xeEn87Odwpw9ZOW-8" style="edgeStyle=orthogonalEdgeStyle;rounded=0;orthogonalLoop=1;jettySize=auto;html=1;exitX=0.5;exitY=1;exitDx=0;exitDy=0;entryX=0;entryY=0.5;entryDx=0;entryDy=0;" edge="1" parent="1" source="7JWM1xeEn87Odwpw9ZOW-1" target="7JWM1xeEn87Odwpw9ZOW-2">
          <mxGeometry relative="1" as="geometry" />
        </mxCell>
        <mxCell id="7JWM1xeEn87Odwpw9ZOW-11" style="edgeStyle=orthogonalEdgeStyle;rounded=0;orthogonalLoop=1;jettySize=auto;html=1;exitX=0.5;exitY=1;exitDx=0;exitDy=0;entryX=0;entryY=0.5;entryDx=0;entryDy=0;" edge="1" parent="1" source="7JWM1xeEn87Odwpw9ZOW-1" target="7JWM1xeEn87Odwpw9ZOW-3">
          <mxGeometry relative="1" as="geometry" />
        </mxCell>
        <mxCell id="7JWM1xeEn87Odwpw9ZOW-1" value="EcoCommunity" style="rounded=0;whiteSpace=wrap;html=1;" vertex="1" parent="1">
          <mxGeometry x="40" y="40" width="120" height="60" as="geometry" />
        </mxCell>
        <mxCell id="7JWM1xeEn87Odwpw9ZOW-14" style="edgeStyle=orthogonalEdgeStyle;rounded=0;orthogonalLoop=1;jettySize=auto;html=1;exitX=1;exitY=0.5;exitDx=0;exitDy=0;" edge="1" parent="1" source="7JWM1xeEn87Odwpw9ZOW-2" target="7JWM1xeEn87Odwpw9ZOW-5">
          <mxGeometry relative="1" as="geometry" />
        </mxCell>
        <mxCell id="7JWM1xeEn87Odwpw9ZOW-15" style="edgeStyle=orthogonalEdgeStyle;rounded=0;orthogonalLoop=1;jettySize=auto;html=1;exitX=1;exitY=0.5;exitDx=0;exitDy=0;entryX=0;entryY=0.5;entryDx=0;entryDy=0;" edge="1" parent="1" source="7JWM1xeEn87Odwpw9ZOW-2" target="7JWM1xeEn87Odwpw9ZOW-12">
          <mxGeometry relative="1" as="geometry" />
        </mxCell>
        <mxCell id="7JWM1xeEn87Odwpw9ZOW-16" style="edgeStyle=orthogonalEdgeStyle;rounded=0;orthogonalLoop=1;jettySize=auto;html=1;exitX=1;exitY=0.5;exitDx=0;exitDy=0;entryX=0;entryY=0.5;entryDx=0;entryDy=0;" edge="1" parent="1" source="7JWM1xeEn87Odwpw9ZOW-2" target="7JWM1xeEn87Odwpw9ZOW-13">
          <mxGeometry relative="1" as="geometry" />
        </mxCell>
        <mxCell id="7JWM1xeEn87Odwpw9ZOW-2" value="src" style="rounded=0;whiteSpace=wrap;html=1;" vertex="1" parent="1">
          <mxGeometry x="120" y="130" width="120" height="60" as="geometry" />
        </mxCell>
        <mxCell id="7JWM1xeEn87Odwpw9ZOW-3" value="build.gradle.kts" style="rounded=0;whiteSpace=wrap;html=1;" vertex="1" parent="1">
          <mxGeometry x="120" y="210" width="120" height="60" as="geometry" />
        </mxCell>
        <mxCell id="7JWM1xeEn87Odwpw9ZOW-4" value="proguard-rules.pro" style="rounded=0;whiteSpace=wrap;html=1;" vertex="1" parent="1">
          <mxGeometry x="120" y="290" width="120" height="60" as="geometry" />
        </mxCell>
        <mxCell id="7JWM1xeEn87Odwpw9ZOW-5" value="androidTest" style="rounded=0;whiteSpace=wrap;html=1;" vertex="1" parent="1">
          <mxGeometry x="300" y="130" width="120" height="60" as="geometry" />
        </mxCell>
        <mxCell id="7JWM1xeEn87Odwpw9ZOW-10" style="edgeStyle=orthogonalEdgeStyle;rounded=0;orthogonalLoop=1;jettySize=auto;html=1;exitX=0.5;exitY=1;exitDx=0;exitDy=0;entryX=0;entryY=0.5;entryDx=0;entryDy=0;" edge="1" parent="1" source="7JWM1xeEn87Odwpw9ZOW-1" target="7JWM1xeEn87Odwpw9ZOW-4">
          <mxGeometry relative="1" as="geometry" />
        </mxCell>
        <mxCell id="7JWM1xeEn87Odwpw9ZOW-27" style="edgeStyle=orthogonalEdgeStyle;rounded=0;orthogonalLoop=1;jettySize=auto;html=1;exitX=1;exitY=0.5;exitDx=0;exitDy=0;entryX=0;entryY=0.5;entryDx=0;entryDy=0;" edge="1" parent="1" source="7JWM1xeEn87Odwpw9ZOW-12" target="7JWM1xeEn87Odwpw9ZOW-24">
          <mxGeometry relative="1" as="geometry" />
        </mxCell>
        <mxCell id="7JWM1xeEn87Odwpw9ZOW-28" style="edgeStyle=orthogonalEdgeStyle;rounded=0;orthogonalLoop=1;jettySize=auto;html=1;exitX=1;exitY=0.5;exitDx=0;exitDy=0;entryX=0;entryY=0.5;entryDx=0;entryDy=0;" edge="1" parent="1" source="7JWM1xeEn87Odwpw9ZOW-12" target="7JWM1xeEn87Odwpw9ZOW-25">
          <mxGeometry relative="1" as="geometry">
            <Array as="points">
              <mxPoint x="500" y="240" />
              <mxPoint x="500" y="330" />
            </Array>
          </mxGeometry>
        </mxCell>
        <mxCell id="7JWM1xeEn87Odwpw9ZOW-29" style="edgeStyle=orthogonalEdgeStyle;rounded=0;orthogonalLoop=1;jettySize=auto;html=1;exitX=1;exitY=0.5;exitDx=0;exitDy=0;entryX=0;entryY=0.5;entryDx=0;entryDy=0;" edge="1" parent="1" source="7JWM1xeEn87Odwpw9ZOW-12" target="7JWM1xeEn87Odwpw9ZOW-26">
          <mxGeometry relative="1" as="geometry">
            <Array as="points">
              <mxPoint x="500" y="240" />
              <mxPoint x="500" y="420" />
            </Array>
          </mxGeometry>
        </mxCell>
        <mxCell id="7JWM1xeEn87Odwpw9ZOW-12" value="main" style="rounded=0;whiteSpace=wrap;html=1;" vertex="1" parent="1">
          <mxGeometry x="300" y="210" width="120" height="60" as="geometry" />
        </mxCell>
        <mxCell id="7JWM1xeEn87Odwpw9ZOW-13" value="test" style="rounded=0;whiteSpace=wrap;html=1;" vertex="1" parent="1">
          <mxGeometry x="300" y="300" width="120" height="60" as="geometry" />
        </mxCell>
        <mxCell id="7JWM1xeEn87Odwpw9ZOW-17" value="Adapters" style="rounded=0;whiteSpace=wrap;html=1;" vertex="1" parent="1">
          <mxGeometry x="890" y="210" width="120" height="60" as="geometry" />
        </mxCell>
        <mxCell id="7JWM1xeEn87Odwpw9ZOW-18" value="data" style="rounded=0;whiteSpace=wrap;html=1;" vertex="1" parent="1">
          <mxGeometry x="890" y="290" width="120" height="60" as="geometry" />
        </mxCell>
        <mxCell id="7JWM1xeEn87Odwpw9ZOW-19" value="navigation" style="rounded=0;whiteSpace=wrap;html=1;" vertex="1" parent="1">
          <mxGeometry x="890" y="380" width="120" height="60" as="geometry" />
        </mxCell>
        <mxCell id="7JWM1xeEn87Odwpw9ZOW-22" value="MainActivity.java" style="rounded=0;whiteSpace=wrap;html=1;" vertex="1" parent="1">
          <mxGeometry x="890" y="470" width="120" height="60" as="geometry" />
        </mxCell>
        <mxCell id="7JWM1xeEn87Odwpw9ZOW-23" value="RegisterActivity.java" style="rounded=0;whiteSpace=wrap;html=1;" vertex="1" parent="1">
          <mxGeometry x="890" y="560" width="120" height="60" as="geometry" />
        </mxCell>
        <mxCell id="7JWM1xeEn87Odwpw9ZOW-47" style="edgeStyle=orthogonalEdgeStyle;rounded=0;orthogonalLoop=1;jettySize=auto;html=1;exitX=1;exitY=0.5;exitDx=0;exitDy=0;entryX=0;entryY=0.5;entryDx=0;entryDy=0;" edge="1" parent="1" source="7JWM1xeEn87Odwpw9ZOW-24" target="7JWM1xeEn87Odwpw9ZOW-17">
          <mxGeometry relative="1" as="geometry" />
        </mxCell>
        <mxCell id="7JWM1xeEn87Odwpw9ZOW-48" style="edgeStyle=orthogonalEdgeStyle;rounded=0;orthogonalLoop=1;jettySize=auto;html=1;exitX=1;exitY=0.5;exitDx=0;exitDy=0;entryX=0;entryY=0.5;entryDx=0;entryDy=0;" edge="1" parent="1" source="7JWM1xeEn87Odwpw9ZOW-24" target="7JWM1xeEn87Odwpw9ZOW-18">
          <mxGeometry relative="1" as="geometry">
            <Array as="points">
              <mxPoint x="850" y="240" />
              <mxPoint x="850" y="320" />
            </Array>
          </mxGeometry>
        </mxCell>
        <mxCell id="7JWM1xeEn87Odwpw9ZOW-50" style="edgeStyle=orthogonalEdgeStyle;rounded=0;orthogonalLoop=1;jettySize=auto;html=1;exitX=1;exitY=0.5;exitDx=0;exitDy=0;entryX=0;entryY=0.5;entryDx=0;entryDy=0;" edge="1" parent="1" source="7JWM1xeEn87Odwpw9ZOW-24">
          <mxGeometry relative="1" as="geometry">
            <mxPoint x="890" y="500" as="targetPoint" />
            <Array as="points">
              <mxPoint x="850" y="240" />
              <mxPoint x="850" y="500" />
            </Array>
          </mxGeometry>
        </mxCell>
        <mxCell id="7JWM1xeEn87Odwpw9ZOW-51" style="edgeStyle=orthogonalEdgeStyle;rounded=0;orthogonalLoop=1;jettySize=auto;html=1;exitX=1;exitY=0.5;exitDx=0;exitDy=0;entryX=0;entryY=0.5;entryDx=0;entryDy=0;" edge="1" parent="1" source="7JWM1xeEn87Odwpw9ZOW-24" target="7JWM1xeEn87Odwpw9ZOW-23">
          <mxGeometry relative="1" as="geometry">
            <Array as="points">
              <mxPoint x="850" y="240" />
              <mxPoint x="850" y="590" />
            </Array>
          </mxGeometry>
        </mxCell>
        <mxCell id="7JWM1xeEn87Odwpw9ZOW-24" value="EcoCommunity" style="rounded=0;whiteSpace=wrap;html=1;" vertex="1" parent="1">
          <mxGeometry x="530" y="210" width="120" height="60" as="geometry" />
        </mxCell>
        <mxCell id="7JWM1xeEn87Odwpw9ZOW-39" style="edgeStyle=orthogonalEdgeStyle;rounded=0;orthogonalLoop=1;jettySize=auto;html=1;exitX=1;exitY=0.5;exitDx=0;exitDy=0;entryX=0;entryY=0.5;entryDx=0;entryDy=0;" edge="1" parent="1" source="7JWM1xeEn87Odwpw9ZOW-25" target="7JWM1xeEn87Odwpw9ZOW-35">
          <mxGeometry relative="1" as="geometry" />
        </mxCell>
        <mxCell id="7JWM1xeEn87Odwpw9ZOW-40" style="edgeStyle=orthogonalEdgeStyle;rounded=0;orthogonalLoop=1;jettySize=auto;html=1;exitX=1;exitY=0.5;exitDx=0;exitDy=0;entryX=0;entryY=0.5;entryDx=0;entryDy=0;" edge="1" parent="1" source="7JWM1xeEn87Odwpw9ZOW-25" target="7JWM1xeEn87Odwpw9ZOW-36">
          <mxGeometry relative="1" as="geometry" />
        </mxCell>
        <mxCell id="7JWM1xeEn87Odwpw9ZOW-41" style="edgeStyle=orthogonalEdgeStyle;rounded=0;orthogonalLoop=1;jettySize=auto;html=1;exitX=1;exitY=0.5;exitDx=0;exitDy=0;entryX=0;entryY=0.5;entryDx=0;entryDy=0;" edge="1" parent="1" source="7JWM1xeEn87Odwpw9ZOW-25" target="7JWM1xeEn87Odwpw9ZOW-37">
          <mxGeometry relative="1" as="geometry" />
        </mxCell>
        <mxCell id="7JWM1xeEn87Odwpw9ZOW-42" style="edgeStyle=orthogonalEdgeStyle;rounded=0;orthogonalLoop=1;jettySize=auto;html=1;exitX=1;exitY=0.5;exitDx=0;exitDy=0;entryX=0;entryY=0.5;entryDx=0;entryDy=0;" edge="1" parent="1" source="7JWM1xeEn87Odwpw9ZOW-25" target="7JWM1xeEn87Odwpw9ZOW-38">
          <mxGeometry relative="1" as="geometry" />
        </mxCell>
        <mxCell id="7JWM1xeEn87Odwpw9ZOW-25" value="res" style="rounded=0;whiteSpace=wrap;html=1;" vertex="1" parent="1">
          <mxGeometry x="530" y="300" width="120" height="60" as="geometry" />
        </mxCell>
        <mxCell id="7JWM1xeEn87Odwpw9ZOW-26" value="AndroidManifest.xml" style="rounded=0;whiteSpace=wrap;html=1;" vertex="1" parent="1">
          <mxGeometry x="530" y="390" width="120" height="60" as="geometry" />
        </mxCell>
        <mxCell id="7JWM1xeEn87Odwpw9ZOW-30" value="" style="endArrow=classic;html=1;rounded=0;exitX=1;exitY=0.5;exitDx=0;exitDy=0;" edge="1" parent="1" source="7JWM1xeEn87Odwpw9ZOW-5">
          <mxGeometry width="50" height="50" relative="1" as="geometry">
            <mxPoint x="480" y="290" as="sourcePoint" />
            <mxPoint x="450" y="160" as="targetPoint" />
          </mxGeometry>
        </mxCell>
        <mxCell id="7JWM1xeEn87Odwpw9ZOW-31" value="" style="endArrow=classic;html=1;rounded=0;exitX=1;exitY=0.5;exitDx=0;exitDy=0;" edge="1" parent="1">
          <mxGeometry width="50" height="50" relative="1" as="geometry">
            <mxPoint x="420" y="329.57" as="sourcePoint" />
            <mxPoint x="450" y="330" as="targetPoint" />
          </mxGeometry>
        </mxCell>
        <mxCell id="7JWM1xeEn87Odwpw9ZOW-32" value="" style="endArrow=none;dashed=1;html=1;dashPattern=1 3;strokeWidth=2;rounded=0;" edge="1" parent="1">
          <mxGeometry width="50" height="50" relative="1" as="geometry">
            <mxPoint x="460" y="330" as="sourcePoint" />
            <mxPoint x="480" y="330" as="targetPoint" />
          </mxGeometry>
        </mxCell>
        <mxCell id="7JWM1xeEn87Odwpw9ZOW-33" value="" style="endArrow=none;dashed=1;html=1;dashPattern=1 3;strokeWidth=2;rounded=0;" edge="1" parent="1">
          <mxGeometry width="50" height="50" relative="1" as="geometry">
            <mxPoint x="460" y="160" as="sourcePoint" />
            <mxPoint x="480" y="160" as="targetPoint" />
          </mxGeometry>
        </mxCell>
        <mxCell id="7JWM1xeEn87Odwpw9ZOW-35" value="layout" style="rounded=0;whiteSpace=wrap;html=1;" vertex="1" parent="1">
          <mxGeometry x="707" y="360" width="120" height="60" as="geometry" />
        </mxCell>
        <mxCell id="7JWM1xeEn87Odwpw9ZOW-36" value="menu" style="rounded=0;whiteSpace=wrap;html=1;" vertex="1" parent="1">
          <mxGeometry x="707" y="450" width="120" height="60" as="geometry" />
        </mxCell>
        <mxCell id="7JWM1xeEn87Odwpw9ZOW-37" value="values" style="rounded=0;whiteSpace=wrap;html=1;" vertex="1" parent="1">
          <mxGeometry x="707" y="540" width="120" height="60" as="geometry" />
        </mxCell>
        <mxCell id="7JWM1xeEn87Odwpw9ZOW-38" value="xml" style="rounded=0;whiteSpace=wrap;html=1;" vertex="1" parent="1">
          <mxGeometry x="707" y="630" width="120" height="60" as="geometry" />
        </mxCell>
        <mxCell id="7JWM1xeEn87Odwpw9ZOW-45" value="" style="endArrow=classic;html=1;rounded=0;" edge="1" parent="1">
          <mxGeometry width="50" height="50" relative="1" as="geometry">
            <mxPoint x="670" y="330" as="sourcePoint" />
            <mxPoint x="710" y="330" as="targetPoint" />
          </mxGeometry>
        </mxCell>
        <mxCell id="7JWM1xeEn87Odwpw9ZOW-46" value="" style="endArrow=none;dashed=1;html=1;dashPattern=1 3;strokeWidth=2;rounded=0;" edge="1" parent="1">
          <mxGeometry width="50" height="50" relative="1" as="geometry">
            <mxPoint x="720" y="329.86" as="sourcePoint" />
            <mxPoint x="740" y="329.86" as="targetPoint" />
          </mxGeometry>
        </mxCell>
        <mxCell id="7JWM1xeEn87Odwpw9ZOW-49" style="edgeStyle=orthogonalEdgeStyle;rounded=0;orthogonalLoop=1;jettySize=auto;html=1;exitX=1;exitY=0.5;exitDx=0;exitDy=0;entryX=0;entryY=0.5;entryDx=0;entryDy=0;" edge="1" parent="1" source="7JWM1xeEn87Odwpw9ZOW-24" target="7JWM1xeEn87Odwpw9ZOW-19">
          <mxGeometry relative="1" as="geometry">
            <Array as="points">
              <mxPoint x="850" y="240" />
              <mxPoint x="850" y="410" />
            </Array>
          </mxGeometry>
        </mxCell>
        <mxCell id="7JWM1xeEn87Odwpw9ZOW-53" value="" style="endArrow=classic;html=1;rounded=0;exitX=1;exitY=0.5;exitDx=0;exitDy=0;" edge="1" parent="1">
          <mxGeometry width="50" height="50" relative="1" as="geometry">
            <mxPoint x="1010" y="239.55" as="sourcePoint" />
            <mxPoint x="1040" y="239.98000000000002" as="targetPoint" />
          </mxGeometry>
        </mxCell>
        <mxCell id="7JWM1xeEn87Odwpw9ZOW-54" value="" style="endArrow=none;dashed=1;html=1;dashPattern=1 3;strokeWidth=2;rounded=0;" edge="1" parent="1">
          <mxGeometry width="50" height="50" relative="1" as="geometry">
            <mxPoint x="1050" y="239.98000000000002" as="sourcePoint" />
            <mxPoint x="1070" y="239.98000000000002" as="targetPoint" />
          </mxGeometry>
        </mxCell>
        <mxCell id="7JWM1xeEn87Odwpw9ZOW-55" value="" style="endArrow=classic;html=1;rounded=0;exitX=1;exitY=0.5;exitDx=0;exitDy=0;" edge="1" parent="1">
          <mxGeometry width="50" height="50" relative="1" as="geometry">
            <mxPoint x="1010" y="319.55" as="sourcePoint" />
            <mxPoint x="1040" y="319.98" as="targetPoint" />
          </mxGeometry>
        </mxCell>
        <mxCell id="7JWM1xeEn87Odwpw9ZOW-56" value="" style="endArrow=none;dashed=1;html=1;dashPattern=1 3;strokeWidth=2;rounded=0;" edge="1" parent="1">
          <mxGeometry width="50" height="50" relative="1" as="geometry">
            <mxPoint x="1050" y="319.98" as="sourcePoint" />
            <mxPoint x="1070" y="319.98" as="targetPoint" />
          </mxGeometry>
        </mxCell>
        <mxCell id="7JWM1xeEn87Odwpw9ZOW-57" value="" style="endArrow=classic;html=1;rounded=0;exitX=1;exitY=0.5;exitDx=0;exitDy=0;" edge="1" parent="1">
          <mxGeometry width="50" height="50" relative="1" as="geometry">
            <mxPoint x="1010" y="409.55" as="sourcePoint" />
            <mxPoint x="1040" y="409.98" as="targetPoint" />
          </mxGeometry>
        </mxCell>
        <mxCell id="7JWM1xeEn87Odwpw9ZOW-58" value="" style="endArrow=none;dashed=1;html=1;dashPattern=1 3;strokeWidth=2;rounded=0;" edge="1" parent="1">
          <mxGeometry width="50" height="50" relative="1" as="geometry">
            <mxPoint x="1050" y="409.98" as="sourcePoint" />
            <mxPoint x="1070" y="409.98" as="targetPoint" />
          </mxGeometry>
        </mxCell>
      </root>
    </mxGraphModel>
  </diagram>
</mxfile>
